<?xml version="1.0" encoding="UTF-8"?>
<svg width="182px" height="42px" viewBox="0 0 182 42" version="1.1" xmlns="http://www.w3.org/2000/svg" xmlns:xlink="http://www.w3.org/1999/xlink">
    <!-- Generator: Sketch 51.3 (57544) - http://www.bohemiancoding.com/sketch -->
    <title>Logo</title>
    <desc>Created with Sketch.</desc>
    <defs>
        <polygon id="path-1" points="0.1687 0.188858427 6.2881 0.188858427 6.2881 9.91011236 0.1687 9.91011236"></polygon>
        <polygon id="path-3" points="0 42 181.754067 42 181.754067 0.0254831461 0 0.0254831461"></polygon>
    </defs>
    <g id="Symbols" stroke="none" stroke-width="1" fill="none" fill-rule="evenodd">
        <g id="Misc-/-Sidebar" transform="translate(-48.000000, -45.000000)">
            <g id="Sidebar">
                <g id="Logo" transform="translate(48.000000, 45.000000)">
                    <path d="M128.035862,33 L124,42 L125.096166,42 L126.114665,39.6866261 L130.911379,39.6866261 L131.916856,42 L133,42 L128.964138,33 L128.035862,33 Z M128.513022,34.2004559 L130.537464,38.8272036 L126.48858,38.8272036 L128.513022,34.2004559 Z" id="Fill-1" fill="#B2B2B2"></path>
                    <g id="Group-23">
                        <g id="Group-4" transform="translate(134.866667, 32.089888)">
                            <mask id="mask-2" fill="white">
                                <use xlink:href="#path-1"></use>
                            </mask>
                            <g id="Clip-3"></g>
                            <path d="M4.7355,8.3727236 C5.08036667,7.93195955 5.25303333,7.30620674 5.25303333,6.49499326 C5.25303333,5.69274607 5.08036667,5.07124045 4.7355,4.6304764 C4.39063333,4.19065618 3.89876667,3.97027416 3.26083333,3.97027416 C2.62243333,3.97027416 2.12403333,4.18829663 1.76656667,4.62434157 C1.40816667,5.06038652 1.22943333,5.67528539 1.22943333,6.4690382 C1.22943333,7.28025169 1.40816667,7.9107236 1.76656667,8.35998202 C2.12403333,8.80924045 2.62243333,9.03339775 3.26083333,9.03339775 C3.89876667,9.03339775 4.39063333,8.81348764 4.7355,8.3727236 Z M6.2881,0.188858427 L6.2881,9.81818427 L5.25303333,9.81818427 L5.25303333,8.62802697 C5.0631,9.03764494 4.77656667,9.35382472 4.39296667,9.57656629 C4.0089,9.79836404 3.5623,9.91020674 3.05363333,9.91020674 C2.48476667,9.91020674 1.98216667,9.76580225 1.5463,9.47840899 C1.11043333,9.19007191 0.7721,8.78706067 0.530833333,8.26795955 C0.289566667,7.74933034 0.1687,7.14906067 0.1687,6.4690382 C0.1687,5.78854382 0.287233333,5.19346517 0.5243,4.68333034 C0.761366667,4.17319551 1.10016667,3.77867865 1.53976667,3.49930787 C1.97983333,3.21993708 2.48476667,3.08025169 3.05363333,3.08025169 C3.5623,3.08025169 4.00656667,3.19162247 4.38643333,3.41389213 C4.76536667,3.63663371 5.0505,3.94856629 5.24043333,4.34968989 L5.24043333,0.188858427 L6.2881,0.188858427 Z" id="Fill-2" fill="#B2B2B2" mask="url(#mask-2)"></path>
                        </g>
                        <polygon id="Fill-5" fill="#B2B2B2" points="148.76232 35.3402629 149.810453 35.3402629 147.00252 41.9083079 146.006653 41.9083079 143.23792 35.3402629 144.337853 35.3402629 146.536787 40.7573191"></polygon>
                        <mask id="mask-4" fill="white">
                            <use xlink:href="#path-3"></use>
                        </mask>
                        <g id="Clip-8"></g>
                        <path d="M151.867333,41.9079775 L152.915467,41.9079775 L152.915467,35.327191 L151.867333,35.327191 L151.867333,41.9079775 Z M151.763733,33.7444045 L153.044733,33.7444045 L153.044733,32.5405618 L151.763733,32.5405618 L151.763733,33.7444045 Z" id="Fill-7" fill="#B2B2B2" mask="url(#mask-4)"></path>
                        <path d="M155.451053,41.1492876 L155.800587,40.3645011 C156.15432,40.6438719 156.511787,40.8444337 156.874387,40.9661865 C157.23652,41.0884112 157.642053,41.1492876 158.09052,41.1492876 C158.582387,41.1492876 158.955253,41.0643438 159.210053,40.8944562 C159.464387,40.7245685 159.59132,40.4777596 159.59132,40.1554449 C159.59132,39.8935348 159.505453,39.6844787 159.33232,39.5268607 C159.159653,39.3697146 158.875453,39.2484337 158.478787,39.1606584 L157.378853,38.8987483 C156.835653,38.7774674 156.41472,38.558973 156.117453,38.2451528 C155.81972,37.9308607 155.67132,37.556164 155.67132,37.1196472 C155.67132,36.5439169 155.89952,36.0753101 156.356853,35.7128831 C156.814187,35.3514 157.418053,35.1701865 158.167987,35.1701865 C158.62532,35.1701865 159.05652,35.2442764 159.462053,35.3929281 C159.867587,35.5411079 160.207787,35.7544112 160.484053,36.033782 L160.13452,36.805827 C159.522253,36.290973 158.866587,36.033782 158.167987,36.033782 C157.702253,36.033782 157.342453,36.1234449 157.08812,36.3022989 C156.83332,36.4806809 156.70592,36.7317371 156.70592,37.0540517 C156.70592,37.3249281 156.78572,37.5387034 156.94532,37.6953775 C157.10492,37.8525236 157.361587,37.9742764 157.715787,38.0615798 L158.815253,38.3367034 C159.418653,38.4763888 159.867587,38.6920517 160.160653,38.984164 C160.45372,39.2762764 160.600253,39.6580517 160.600253,40.129018 C160.600253,40.6962539 160.372053,41.1492876 159.91472,41.4900067 C159.457387,41.829782 158.83672,42.0001416 158.051787,42.0001416 C156.95652,42.0001416 156.089453,41.7165236 155.451053,41.1492876" id="Fill-9" fill="#B2B2B2" mask="url(#mask-4)"></path>
                        <path d="M167.35376,40.4755416 C167.698627,40.0437438 167.871293,39.4137438 167.871293,38.5850697 C167.871293,37.7828225 167.694427,37.1613169 167.34116,36.7205528 C166.987427,36.2802607 166.49556,36.0603506 165.866027,36.0603506 C165.227627,36.0603506 164.732027,36.2802607 164.378293,36.7205528 C164.024093,37.1613169 163.847693,37.7828225 163.847693,38.5850697 C163.847693,39.4137438 164.022227,40.0437438 164.371293,40.4755416 C164.720827,40.9073393 165.219227,41.1234742 165.866027,41.1234742 C166.512827,41.1234742 167.008893,40.9073393 167.35376,40.4755416 M164.249027,41.581227 C163.783293,41.3023281 163.42256,40.9054517 163.168227,40.3905978 C162.913893,39.8757438 162.78696,39.2740584 162.78696,38.5850697 C162.78696,37.8960809 162.913893,37.2943955 163.168227,36.7795416 C163.42256,36.2651596 163.783293,35.8682831 164.249027,35.5893843 C164.71476,35.3100135 165.253293,35.1703281 165.866027,35.1703281 C166.478293,35.1703281 167.017293,35.3100135 167.483027,35.5893843 C167.94876,35.8682831 168.309027,36.2651596 168.563827,36.7795416 C168.81816,37.2943955 168.945093,37.8960809 168.945093,38.5850697 C168.945093,39.2740584 168.81816,39.8757438 168.563827,40.3905978 C168.309027,40.9054517 167.94876,41.3023281 167.483027,41.581227 C167.017293,41.8605978 166.478293,41.9998112 165.866027,41.9998112 C165.253293,41.9998112 164.71476,41.8605978 164.249027,41.581227" id="Fill-10" fill="#B2B2B2" mask="url(#mask-4)"></path>
                        <path d="M175.103927,35.2490427 L175.077793,36.2169303 C174.87946,36.1470876 174.650793,36.1121663 174.39226,36.1121663 C173.76226,36.1121663 173.294193,36.3108404 172.988527,36.7077169 C172.682393,37.1045933 172.52886,37.5864135 172.52886,38.1531775 L172.52886,41.9081663 L171.480727,41.9081663 L171.480727,37.1720764 C171.480727,36.4920539 171.44666,35.8766831 171.377593,35.3273798 L172.37346,35.3273798 L172.47706,36.543964 C172.641327,36.0994247 172.90406,35.7591775 173.266193,35.5236944 C173.628793,35.2882112 174.043193,35.1702337 174.508927,35.1702337 C174.724527,35.1702337 174.922393,35.1966607 175.103927,35.2490427" id="Fill-11" fill="#B2B2B2" mask="url(#mask-4)"></path>
                        <path d="M176.604633,41.1492876 L176.954167,40.3645011 C177.3079,40.6438719 177.665367,40.8444337 178.027967,40.9661865 C178.3901,41.0884112 178.795633,41.1492876 179.2441,41.1492876 C179.735967,41.1492876 180.108833,41.0643438 180.363633,40.8944562 C180.617967,40.7245685 180.7449,40.4777596 180.7449,40.1554449 C180.7449,39.8935348 180.659033,39.6844787 180.4859,39.5268607 C180.313233,39.3697146 180.029033,39.2484337 179.632367,39.1606584 L178.532433,38.8987483 C177.989233,38.7774674 177.5683,38.558973 177.271033,38.2451528 C176.9733,37.9308607 176.8249,37.556164 176.8249,37.1196472 C176.8249,36.5439169 177.0531,36.0753101 177.510433,35.7128831 C177.967767,35.3514 178.571633,35.1701865 179.321567,35.1701865 C179.7789,35.1701865 180.2101,35.2442764 180.615633,35.3929281 C181.021167,35.5411079 181.361367,35.7544112 181.637633,36.033782 L181.2881,36.805827 C180.675833,36.290973 180.020167,36.033782 179.321567,36.033782 C178.855833,36.033782 178.496033,36.1234449 178.2417,36.3022989 C177.9869,36.4806809 177.8595,36.7317371 177.8595,37.0540517 C177.8595,37.3249281 177.9393,37.5387034 178.0989,37.6953775 C178.2585,37.8525236 178.515167,37.9742764 178.869367,38.0615798 L179.968833,38.3367034 C180.572233,38.4763888 181.021167,38.6920517 181.314233,38.984164 C181.6073,39.2762764 181.753833,39.6580517 181.753833,40.129018 C181.753833,40.6962539 181.525633,41.1492876 181.0683,41.4900067 C180.610967,41.829782 179.9903,42.0001416 179.205367,42.0001416 C178.1101,42.0001416 177.243033,41.7165236 176.604633,41.1492876" id="Fill-12" fill="#B2B2B2" mask="url(#mask-4)"></path>
                        <path d="M15.9252333,17.3038584 C15.8753,17.3666225 15.8813667,17.3892742 15.8967667,17.4043753 C16.7045667,18.1877461 17.0970333,19.2788022 17.0970333,20.7388921 C17.0970333,23.9832742 15.1860333,25.4938584 11.0831,25.4938584 L9.56736667,25.4938584 L9.56736667,4.68781348 L10.5581,4.68781348 C14.2256333,4.68781348 16.0848333,6.2238809 16.0848333,9.25307191 C16.0848333,11.8636787 14.6867,13.3709596 11.9291667,13.7333865 C11.8997667,13.7371618 11.8783,13.762173 11.8783,13.7923753 L11.8783,15.6856787 C11.9077,15.7394764 11.9193667,15.7451393 11.9389667,15.7451393 C15.5556333,15.6045101 18.3519,14.7555438 20.0281667,13.2874315 C20.7188333,12.6210944 21.1999667,12.0279034 21.5425,11.4181955 C22.2821667,10.029364 22.2033,8.87979101 22.2000333,8.83637528 C22.2000333,4.8237236 18.7490333,2.52221798 12.7323,2.52221798 L0.287233333,2.52221798 C0.254566667,2.52221798 0.228433333,2.54864494 0.228433333,2.58167865 L0.228433333,4.40089213 C0.228433333,4.43392584 0.254566667,4.4598809 0.287233333,4.4598809 C3.1563,4.4598809 3.30236667,4.72745393 3.30236667,5.5004427 L3.30236667,24.6812292 C3.30236667,25.454218 3.1563,25.7213191 0.287233333,25.7213191 C0.254566667,25.7213191 0.228433333,25.7477461 0.228433333,25.7803079 L0.228433333,27.6004652 C0.228433333,27.633027 0.254566667,27.6594539 0.287233333,27.6594539 L12.7323,27.6594539 C16.0587,27.6594539 18.7989667,26.9756562 20.6563,25.6821506 C22.4506333,24.4330045 23.3993667,22.6449371 23.3993667,20.5114315 C23.3993667,18.5091169 22.2639667,16.7993865 20.2022333,15.6970045 C18.9856333,16.4114764 17.5665,16.9513416 15.9252333,17.3038584 Z" id="Fill-13" fill="#FFFFFF" mask="url(#mask-4)"></path>
                        <path d="M22.3370933,29.9814876 L1.87656,29.9814876 L1.87609333,29.9814876 L0.117226667,29.9814876 C0.05236,29.9814876 9.33333333e-05,30.0343416 9.33333333e-05,30.0999371 L9.33333333e-05,32.8271056 C9.33333333e-05,32.8927011 0.05236,32.9455551 0.117226667,32.9455551 L1.81729333,32.9455551 L1.87609333,32.9455551 L22.3370933,32.9455551 C23.1448933,32.9455551 23.8024267,32.2806337 23.8024267,31.4637573 C23.8024267,30.646409 23.1448933,29.9814876 22.3370933,29.9814876" id="Fill-14" fill="#009FE3" mask="url(#mask-4)"></path>
                        <path d="M30.85628,16.2315843 L37.13108,16.2580112 C37.1413467,13.7422584 36.6695467,11.1491124 34.4043467,11.1401461 C32.32488,11.1311798 31.1288133,13.1160337 30.85628,16.2315843 M34.3376133,27.5862135 C29.5104133,27.5659213 25.14288,24.1681685 25.1657467,18.5363933 C25.18768,13.2042809 29.2528133,8.79050562 34.56208,8.81221348 C39.9091467,8.83486517 42.4926133,12.7507753 42.47348,17.4439213 L42.4697467,18.3452697 L30.84788,18.2971348 C31.05508,22.0903483 33.0141467,24.3512697 36.0955467,24.3640112 C38.1381467,24.3725056 39.4037467,23.514573 40.7855467,21.5674719 L42.3773467,22.7755618 C40.8798133,25.7731348 38.0135467,27.6013146 34.3376133,27.5862135" id="Fill-15" fill="#FFFFFF" mask="url(#mask-4)"></path>
                        <path d="M69.44812,22.9618247 C68.2921867,24.120836 67.4736533,24.5677348 66.4712533,24.5639596 C65.1342533,24.5582966 64.2466533,23.7659596 64.2531867,22.1515551 L64.29612,11.526027 L69.56852,11.5477348 L69.5778533,9.33211685 L64.3049867,9.31040899 L64.33112,2.6843191 L58.6060533,4.35063371 L58.5873867,9.28634157 L56.73332,9.27879101 L51.4613867,9.25708315 L51.4870533,2.63099326 L45.7619867,4.29683596 L45.7428533,9.23301573 L43.4034533,9.22357753 L43.3945867,11.4387236 L45.7339867,11.4486337 L45.68732,22.8627236 C45.6751867,25.9041843 48.0444533,27.6412854 51.20052,27.6544989 C54.2450533,27.6672404 56.1443867,26.3609933 57.8976533,24.4157798 L56.6040533,22.9084989 C55.44812,24.0675101 54.6295867,24.5148809 53.62672,24.5106337 C52.2901867,24.5049708 51.40212,23.7126337 51.4086533,22.0982292 L51.4520533,11.4722292 L56.7244533,11.4939371 L58.5780533,11.5019596 L58.5313867,22.9160494 C58.5192533,25.957982 60.88852,27.6946112 64.0445867,27.7082966 C67.0895867,27.7205663 68.9884533,26.4138472 70.7412533,24.4691056 L69.44812,22.9618247 Z" id="Fill-16" fill="#FFFFFF" mask="url(#mask-4)"></path>
                        <path d="M77.0287,16.421009 L83.3035,16.446964 C83.3137667,13.9316831 82.8419667,11.3380652 80.5767667,11.3290989 C78.4973,11.3201326 77.3012333,13.3054584 77.0287,16.421009 M80.5100333,27.7751663 C75.6828333,27.7553461 71.3153,24.3571213 71.3381667,18.7253461 C71.3601,13.3937056 75.4252333,8.97945843 80.7349667,9.0016382 C86.0815667,9.02381798 88.6650333,12.9397281 88.6459,17.6328742 L88.6421667,18.5346944 L77.0203,18.4860876 C77.2275,22.2793011 79.1865667,24.5402225 82.2679667,24.552964 C84.3105667,24.5614584 85.5761667,23.7035258 86.9579667,21.7568966 L88.5497667,22.9645146 C87.0522333,25.9625596 84.1859667,27.7902674 80.5100333,27.7751663" id="Fill-17" fill="#FFFFFF" mask="url(#mask-4)"></path>
                        <path d="M101.384687,27.4846112 L90.76522,27.4407236 L90.77222,25.7885663 C92.4428867,25.7956449 92.6659533,25.6838022 92.6687533,24.9702742 L92.71262,14.3065213 C92.7158867,13.5179596 92.49422,13.1796 91.8646867,12.8388809 L90.6415533,12.1579146 L90.64622,11.0314652 L97.3377533,9.06926292 L98.4521533,9.07351011 L98.4320867,13.9549483 C99.8152867,11.6704315 101.793487,9.08813933 103.90982,9.09663371 C105.80402,9.10465618 107.023887,10.3486112 107.015953,12.3009034 C107.008487,14.1786337 105.518887,15.1861618 104.368087,15.1814427 C102.65962,15.174364 102.405753,13.7090831 101.403353,13.704836 C100.549353,13.7010607 99.09662,14.8591281 98.42322,16.020027 L98.38682,24.9943416 C98.38402,25.7073978 98.75502,25.8220719 101.39122,25.8324539 L101.384687,27.4846112 Z" id="Fill-18" fill="#FFFFFF" mask="url(#mask-4)"></path>
                        <path d="M116.25558,14.1402674 L116.216847,23.7153236 C116.916847,24.9946719 118.06578,25.6001326 119.36498,25.6057955 C121.593313,25.6147618 123.45998,23.0692787 123.47678,18.9768742 C123.491713,15.2596382 122.017047,12.6622449 119.38038,12.651391 C118.043847,12.6457281 116.852913,13.3167843 116.25558,14.1402674 Z M119.162447,32.9458854 L108.18458,32.9015258 L108.19158,31.0346494 C109.862247,31.0412562 110.443713,30.9298854 110.446513,30.2163573 L110.53658,14.3795258 C110.539847,13.590964 110.31818,13.2521326 109.688647,12.9114135 L108.46598,12.2304472 L108.47018,11.1039978 L115.16218,9.14179551 L116.276113,9.14651461 L116.26258,12.4881101 C117.01018,11.2148966 119.134913,9.15831236 122.031047,9.17058202 C126.18998,9.1880427 129.219113,12.9553011 129.199047,17.8740202 C129.175713,23.7313685 124.96218,27.9568517 119.987047,27.9360876 C118.130647,27.9285371 116.983113,27.0602225 116.20658,26.2683573 L116.16458,30.2404247 C116.16178,30.9534809 116.532313,31.0676831 119.168513,31.079009 L119.162447,32.9458854 Z" id="Fill-19" fill="#FFFFFF" mask="url(#mask-4)"></path>
                        <path d="M130.920953,3.79462921 L129.698287,3.11413483 L129.702953,1.98768539 L136.394487,0.0254831461 L137.50842,0.0297303371 L137.403887,25.1518652 C137.401087,25.8653933 137.62322,25.9791236 139.293887,25.9857303 L139.28782,27.6378876 L129.782287,27.5982472 L129.78882,25.9460899 C131.459487,25.9531685 131.68302,25.8417978 131.68582,25.1282697 L131.768887,5.26274157 C131.772153,4.47417978 131.550953,4.13534831 130.920953,3.79462921" id="Fill-20" fill="#FFFFFF" mask="url(#mask-4)"></path>
                        <path d="M146.30868,22.448009 C146.30168,24.1374472 147.375013,24.9307281 148.637813,24.9354472 C149.343413,24.9387506 150.086813,24.6792 150.90628,24.0444809 L150.929613,18.2994472 C148.624747,19.040818 146.31848,20.0450427 146.30868,22.448009 M151.12328,25.4342562 C149.111013,27.2657393 147.213547,28.0462787 145.171413,28.0382562 C142.498347,28.0269303 140.649413,26.2166831 140.658747,23.9265034 C140.67368,20.2843011 144.356147,18.5349303 150.93708,16.4217169 L150.944547,14.6194921 C150.952947,12.5921663 150.177347,11.5752 148.395147,11.5676494 C147.24388,11.5629303 146.053413,12.0834472 146.049213,13.1353348 C146.047813,13.4349978 146.268547,13.9621213 146.26668,14.4500764 C146.261547,15.7265933 145.32868,16.8119865 143.732213,16.8049079 C142.432547,16.7997169 141.24768,15.9309303 141.25468,14.278773 C141.266347,11.4256045 145.58208,9.2652 150.18668,9.28454831 C154.233613,9.30153708 156.602413,11.3014921 156.588413,14.6430876 L156.549213,24.2554247 C156.546413,24.9689528 156.76808,25.2700315 157.250613,25.2719191 C157.69628,25.2738067 158.253947,25.088818 158.92548,24.3403685 L159.997413,25.5460989 C158.691213,27.0802787 157.016347,28.0873348 155.085747,28.0793124 C153.192013,28.0712899 152.007613,27.1279416 151.12328,25.4342562" id="Fill-21" fill="#FFFFFF" mask="url(#mask-4)"></path>
                        <path d="M169.908153,27.7638876 L160.40262,27.7242472 L160.40962,26.0720899 C162.080287,26.0791685 162.303353,25.9673258 162.30662,25.2542697 L162.35002,14.5905169 C162.353287,13.8019551 162.13162,13.4631236 161.50162,13.1228764 L160.278953,12.4414382 L160.28362,11.3154607 L166.97562,9.35278652 L168.089553,9.35750562 L168.075087,12.8118876 C169.269753,11.3154607 171.46822,9.37166292 174.364353,9.38393258 C177.81722,9.39808989 179.700687,11.9591461 179.687153,15.3012135 L179.646553,25.326 C179.643287,26.0395281 179.865887,26.1532584 181.536553,26.1603371 L181.53002,27.8124944 L172.024487,27.7728539 L172.031487,26.1206966 C173.702153,26.1273034 173.92522,26.0159326 173.92802,25.3024045 L173.963487,16.5536629 C173.97282,14.3385169 173.124887,12.9459101 171.19382,12.9374157 C170.042553,12.9326966 168.926287,13.4541573 168.069487,14.3139775 L168.024687,25.2778652 C168.02142,25.9913933 168.24402,26.1046517 169.915153,26.1117303 L169.908153,27.7638876 Z" id="Fill-22" fill="#FFFFFF" mask="url(#mask-4)"></path>
                    </g>
                </g>
            </g>
        </g>
    </g>
</svg>